<svg width="25" height="24" viewBox="0 0 25 24" fill="none" xmlns="http://www.w3.org/2000/svg">
<path fill-rule="evenodd" clip-rule="evenodd" d="M5.44189 22C3.78504 22 2.44189 20.6568 2.44189 19V11.3361C2.44189 10.4856 2.80286 9.67512 3.435 9.10619L10.435 2.80619C11.5759 1.77937 13.3079 1.77937 14.4488 2.80619L21.4488 9.10619C22.0809 9.67512 22.4419 10.4856 22.4419 11.3361V19C22.4419 20.6568 21.0987 22 19.4419 22H5.44189ZM20.9419 11.3361V19C20.9419 19.8284 20.2703 20.5 19.4419 20.5H16.4419V15C16.4419 13.3431 15.0987 12 13.4419 12H11.4419C9.78504 12 8.44189 13.3431 8.44189 15V20.5H5.44189C4.61347 20.5 3.94189 19.8284 3.94189 19V11.3361C3.94189 10.9108 4.12238 10.5056 4.43845 10.2211L11.4384 3.92113C12.0089 3.40772 12.8749 3.40772 13.4453 3.92113L20.4453 10.2211C20.7614 10.5056 20.9419 10.9108 20.9419 11.3361ZM9.94189 20.5V15C9.94189 14.1716 10.6135 13.5 11.4419 13.5H13.4419C14.2703 13.5 14.9419 14.1716 14.9419 15V20.5H9.94189Z" fill="white"/>
</svg>
